<svg width="59" height="49" viewBox="0 0 59 49" fill="none" xmlns="http://www.w3.org/2000/svg">
<path d="M55.9558 31.3447H55.3972C56.4935 30.6242 57.3934 29.6422 58.0157 28.4873C58.6381 27.3324 58.9634 26.0408 58.9624 24.7288C58.9624 24.5671 58.9624 24.4054 58.9624 24.2437C58.9624 24.2069 58.9624 24.1702 58.9624 24.1334C58.9624 24.0966 58.9624 23.8541 58.9624 23.7217C58.9588 23.6998 58.9588 23.6775 58.9624 23.6556C58.7537 22.1202 58.0965 20.6805 57.0732 19.517C56.8603 19.2722 56.632 19.0414 56.3896 18.826L56.2793 18.7304L56.0367 18.5319L55.8897 18.4143L55.625 18.2232L55.3972 18.0688L55.1619 17.9291C55.1379 17.9078 55.1106 17.8904 55.0811 17.8777C55.0811 17.8336 55.0811 17.7968 55.0811 17.7527C55.0791 16.2775 54.4922 14.8632 53.4491 13.82C52.4059 12.7768 50.9916 12.1899 49.5163 12.188C49.121 12.1884 48.7268 12.2303 48.3402 12.313C47.9784 10.9852 47.3367 9.7502 46.458 8.69098C45.5794 7.63176 44.4843 6.77284 43.2463 6.17192C42.0082 5.57099 40.6559 5.24199 39.2801 5.20699C37.9044 5.172 36.5371 5.43183 35.2701 5.96904C34.1871 4.04279 32.5816 2.46203 30.6387 1.4092C28.6959 0.356368 26.4949 -0.125623 24.2899 0.0188703C22.0848 0.163363 19.9655 0.92845 18.1767 2.22581C16.3878 3.52318 15.0023 5.29993 14.18 7.35102C12.8549 7.1241 11.4962 7.18931 10.1989 7.54207C8.90165 7.89483 7.69704 8.52663 6.66932 9.39334C5.6416 10.26 4.81555 11.3407 4.2489 12.5599C3.68225 13.779 3.38868 15.1072 3.3887 16.4516C3.35896 17.0384 3.38604 17.6268 3.46956 18.2085C2.39099 18.937 1.50886 19.9204 0.901395 21.0715C0.293932 22.2226 -0.0200871 23.5058 -0.012816 24.8073C-0.0055449 26.1088 0.322797 27.3885 0.943082 28.5327C1.56337 29.6769 2.45643 30.6504 3.54307 31.3668H2.9991C2.60918 31.3668 2.23522 31.5217 1.95951 31.7974C1.68379 32.0731 1.52889 32.4471 1.52889 32.837C1.52793 33.0375 1.56657 33.2361 1.6426 33.4216C1.71864 33.607 1.83058 33.7757 1.97197 33.9177C2.11337 34.0598 2.28144 34.1726 2.46654 34.2495C2.65163 34.3264 2.85011 34.366 3.05056 34.366H4.72659C4.54015 35.191 4.44646 36.0343 4.44725 36.8801C4.44744 38.5926 4.82325 40.2843 5.54819 41.8358C6.27313 43.3874 7.32955 44.761 8.643 45.8599C9.95644 46.9589 11.4949 47.7564 13.15 48.1962C14.8052 48.636 16.5366 48.7074 18.2223 48.4054C19.908 48.1035 21.507 47.4354 22.9065 46.4484C24.306 45.4614 25.472 44.1795 26.3223 42.6929C27.1725 41.2064 27.6864 39.5514 27.8277 37.8447C27.969 36.138 27.7342 34.4211 27.1398 32.815C28.639 32.3369 30.2498 32.3369 31.7489 32.815C31.2678 34.1165 31.019 35.4924 31.0138 36.8801C31.0409 38.5096 31.4079 40.1156 32.0913 41.5952C32.7746 43.0748 33.7593 44.3954 34.9823 45.4727C36.2053 46.5499 37.6397 47.36 39.1937 47.8511C40.7477 48.3422 42.3871 48.5036 44.0071 48.3248C45.627 48.146 47.1918 47.631 48.6013 46.8128C50.0108 45.9946 51.234 44.8912 52.1926 43.5732C53.1512 42.2551 53.8242 40.7515 54.1684 39.1585C54.5126 37.5655 54.5205 35.9182 54.1916 34.3219H55.8603C56.2658 34.3219 56.6547 34.1608 56.9415 33.8741C57.2282 33.5873 57.3893 33.1984 57.3893 32.7929C57.3837 32.4131 57.2313 32.0502 56.9641 31.7802C56.6969 31.5103 56.3356 31.3542 55.9558 31.3447ZM16.1942 45.0323C14.5731 45.0323 12.9884 44.5517 11.6405 43.651C10.2926 42.7504 9.24207 41.4703 8.6217 39.9726C8.00134 38.4749 7.83902 36.8269 8.15528 35.2369C8.47154 33.647 9.25217 32.1865 10.3985 31.0402C11.5447 29.894 13.0052 29.1133 14.5951 28.7971C16.1851 28.4808 17.8331 28.6431 19.3308 29.2635C20.8285 29.8839 22.1086 30.9344 23.0092 32.2823C23.9099 33.6302 24.3906 35.2149 24.3906 36.836C24.3906 39.0098 23.527 41.0946 21.9899 42.6317C20.4528 44.1688 18.368 45.0323 16.1942 45.0323ZM33.1897 30.1098C30.7996 29.2079 28.1627 29.2079 25.7726 30.1098C24.6688 28.5326 23.1925 27.2524 21.475 26.383C19.7574 25.5137 17.8517 25.082 15.9271 25.1263C14.0025 25.1707 12.1187 25.6898 10.443 26.6374C8.76736 27.585 7.35167 28.9318 6.32176 30.5582C5.24894 30.2675 4.2774 29.6858 3.51449 28.8775C2.75159 28.0691 2.22704 27.0656 1.99883 25.9778C1.77061 24.89 1.84762 23.7602 2.22133 22.7134C2.59505 21.6667 3.25092 20.7436 4.11645 20.0462C4.11645 20.0903 4.16056 20.1344 4.18997 20.1785C4.35145 20.458 4.53586 20.7236 4.74129 20.9725C4.92473 21.1946 5.12371 21.4034 5.33672 21.5973C5.51606 21.759 5.70777 21.9065 5.9101 22.0384C6.08653 22.156 6.26295 22.2442 6.39527 22.3177L6.72607 22.4574L6.84368 22.5015C6.84368 22.5015 6.78487 22.3251 6.66726 22.0531L6.46878 21.5679C6.38792 21.3841 6.30706 21.1783 6.2262 20.9578C6.14533 20.7372 6.04977 20.5094 5.96891 20.2594C5.88805 20.0095 5.79983 19.7596 5.71897 19.5243L5.60871 19.1421L5.41758 18.407C5.37348 18.2599 5.34407 18.1056 5.30732 17.9585C5.30732 17.9585 5.30732 17.9218 5.30732 17.8997C5.21284 17.4328 5.16604 16.9574 5.16765 16.481C5.16765 14.5314 5.94213 12.6616 7.32071 11.283C8.69929 9.90444 10.5691 9.12997 12.5187 9.12997C12.858 9.1325 13.1969 9.15706 13.5331 9.20348L13.4817 9.38726V9.60778L13.4155 10.0488L13.3493 10.4899C13.3493 10.6443 13.3493 10.7619 13.3126 10.9016L13.2685 11.6881V11.7543V12.1586V12.5923C13.2785 12.8786 13.3105 13.1636 13.364 13.445C13.3995 13.7276 13.4535 14.0076 13.5258 14.283L13.7463 15.1064C13.8272 15.3783 13.9448 15.6356 14.0403 15.9003L14.1947 16.2825L14.3858 16.6574C14.5181 16.9 14.6284 17.1499 14.7681 17.3925C14.9078 17.6351 15.0695 17.8409 15.2091 18.0688C15.8006 18.8985 16.5059 19.6409 17.3042 20.2741C17.6679 20.5712 18.051 20.8438 18.4509 21.0901C18.6389 21.2054 18.8328 21.3109 19.0317 21.4062C19.2301 21.5091 19.4139 21.612 19.605 21.7002L20.1711 21.9207C20.3499 21.9998 20.5342 22.0662 20.7224 22.1192C21.09 22.2148 21.4575 22.325 21.7589 22.3839L22.6778 22.5309C22.9718 22.5309 23.2365 22.5309 23.4717 22.5676H23.8098H24.0965L24.5596 22.5309L24.9419 22.4941L24.5596 22.4206L24.1112 22.3398L23.8245 22.2883L23.5084 22.2001C23.2879 22.1413 23.0453 22.0825 22.7733 22.0016L21.95 21.6929C21.656 21.5826 21.3619 21.4282 21.0459 21.2812C20.7298 21.1342 20.4284 20.9284 20.1049 20.7446C19.9432 20.6417 19.7888 20.5241 19.6345 20.4138C19.4801 20.3035 19.3037 20.1932 19.1493 20.0609C18.8287 19.7977 18.522 19.518 18.2304 19.2229C17.6028 18.5967 17.0547 17.8955 16.5985 17.1352C16.1222 16.3301 15.7493 15.4681 15.4885 14.5697C15.437 14.3418 15.3782 14.1066 15.3194 13.8714V13.7023V13.5185L15.268 13.1657C15.2221 12.9231 15.1951 12.6773 15.1871 12.4306V12.0704V11.7175V10.9824C15.1871 10.8501 15.1871 10.7031 15.1871 10.5928L15.2385 10.2547L15.29 9.91653V9.74745L15.3341 9.57103L15.4223 9.19614L15.562 8.74772C16.1647 6.85856 17.3245 5.19571 18.889 3.97731C20.4535 2.75891 22.3498 2.04187 24.329 1.92026C26.3083 1.79864 28.2781 2.27813 29.98 3.29581C31.6819 4.3135 33.0365 5.82186 33.866 7.62302L34.285 8.5419L35.1745 8.05673C36.264 7.45924 37.481 7.13227 38.7233 7.10336C39.9655 7.07444 41.1964 7.34443 42.3125 7.89058C43.4286 8.43674 44.3971 9.24306 45.1365 10.2417C45.8759 11.2403 46.3645 12.4019 46.5612 13.6288V13.7244C46.5957 13.9112 46.6154 14.1005 46.62 14.2904V14.8417V15.4445C46.62 15.5474 46.62 15.6724 46.62 15.7532L46.5759 16.0179V16.2825C46.5695 16.3725 46.5522 16.4613 46.5245 16.5471C46.4804 16.7309 46.4436 16.9147 46.3995 17.0985C46.1953 17.8104 45.904 18.4943 45.5321 19.1347C45.1802 19.7423 44.7529 20.303 44.2604 20.8034C44.0302 21.0445 43.7847 21.2704 43.5253 21.4797C43.2753 21.6855 43.0181 21.8619 42.7902 22.0457C42.5623 22.2295 42.2903 22.3618 42.0551 22.4868C41.8198 22.6117 41.5773 22.7441 41.32 22.8396L40.6657 23.1043L40.085 23.2807C39.9293 23.335 39.7695 23.3768 39.6072 23.4057L39.247 23.4865L38.9382 23.5527L39.247 23.5894L39.6219 23.6335C39.7027 23.6378 39.7837 23.6378 39.8645 23.6335H40.1365H40.776L41.5111 23.5306C41.7831 23.4865 42.0551 23.4057 42.3565 23.3321C42.6578 23.2586 42.9519 23.119 43.2753 23.0013C43.437 22.9352 43.5914 22.8543 43.7458 22.7735C43.9127 22.6979 44.0747 22.6119 44.231 22.5162C44.5616 22.32 44.8785 22.1014 45.1793 21.8619C45.8422 21.3437 46.4265 20.7321 46.9141 20.0462C47.0317 19.8625 47.1567 19.6787 47.2743 19.4876C47.3919 19.2964 47.4875 19.098 47.5977 18.8995L47.7521 18.5907L47.8844 18.2746C47.9653 18.0541 48.0608 17.8483 48.127 17.6204L48.3108 16.9441C48.3745 16.7027 48.4212 16.457 48.4505 16.209L48.5019 15.8415C48.5019 15.7091 48.5019 15.6209 48.5019 15.5106L48.5387 14.8711V14.533V14.2316C48.8244 14.1579 49.1183 14.1208 49.4134 14.1213C50.267 14.1232 51.0933 14.422 51.7505 14.9666C52.4077 15.5112 52.855 16.2675 53.0154 17.1058C52.3582 16.9316 51.6812 16.8426 51.0013 16.8412C50.7498 16.8412 50.5086 16.9411 50.3307 17.1189C50.1529 17.2968 50.053 17.538 50.053 17.7895C50.054 17.8998 50.0739 18.0092 50.1118 18.1129C50.0122 18.2063 49.9257 18.3126 49.8545 18.429C49.783 18.5294 49.7191 18.6351 49.6634 18.7451H50.0236C50.1558 18.738 50.2883 18.738 50.4205 18.7451H50.8616C51.0233 18.7451 51.1924 18.7451 51.3615 18.7966C51.5305 18.848 51.707 18.8333 51.876 18.8701C52.0451 18.9068 52.0525 18.8701 52.1407 18.9215L52.4053 18.973L52.6773 19.0392L52.9419 19.1053C53.1257 19.1421 53.3095 19.2009 53.4859 19.2523L53.6844 19.3111L53.9123 19.4288L54.0372 19.5023L54.2431 19.6272L54.3607 19.7007L54.64 19.8992L54.7356 19.9727L54.9561 20.1639L55.0223 20.2153L55.309 20.4873C56.2922 21.5003 56.8948 22.8223 57.0144 24.229V24.3098C57.0217 24.442 57.0217 24.5746 57.0144 24.7068C57.0137 26.0243 56.5823 27.3055 55.7861 28.3552C54.9899 29.4049 53.8723 30.1656 52.6038 30.5214C51.573 28.895 50.1566 27.5483 48.4803 26.6008C46.804 25.6533 44.9197 25.1343 42.9947 25.09C41.0697 25.0456 39.1635 25.4772 37.4453 26.3465C35.7272 27.2158 34.2502 28.4959 33.1456 30.073L33.1897 30.1098ZM42.7461 45.0323C41.125 45.0323 39.5403 44.5517 38.1924 43.651C36.8445 42.7504 35.794 41.4703 35.1736 39.9726C34.5532 38.4749 34.3909 36.8269 34.7072 35.2369C35.0234 33.647 35.8041 32.1865 36.9503 31.0402C38.0966 29.894 39.5571 29.1133 41.147 28.7971C42.737 28.4808 44.385 28.6431 45.8827 29.2635C47.3804 29.8839 48.6605 30.9344 49.5611 32.2823C50.4617 33.6302 50.9424 35.2149 50.9424 36.836C50.9425 39.006 50.0819 41.0874 48.5496 42.6239C47.0172 44.1604 44.9381 45.0265 42.7681 45.0323H42.7461Z" fill="#475569"/>
</svg>
