<svg width="225" height="53" viewBox="0 0 225 53" fill="none" xmlns="http://www.w3.org/2000/svg">
<g clip-path="url(#clip0_25_454)">
<path d="M42.7682 45.0323C47.2949 45.0323 50.9646 41.3627 50.9646 36.836C50.9646 32.3092 47.2949 28.6396 42.7682 28.6396C38.2414 28.6396 34.5718 32.3092 34.5718 36.836C34.5718 41.3627 38.2414 45.0323 42.7682 45.0323Z" fill="url(#paint0_linear_25_454)"/>
<path d="M16.1942 45.0323C20.7209 45.0323 24.3906 41.3627 24.3906 36.836C24.3906 32.3092 20.7209 28.6396 16.1942 28.6396C11.6675 28.6396 7.9978 32.3092 7.9978 36.836C7.9978 41.3627 11.6675 45.0323 16.1942 45.0323Z" fill="url(#paint1_linear_25_454)"/>
<g filter="url(#filter0_ddd_25_454)">
<path d="M52.5452 31.9769C53.8767 31.5507 55.0599 30.7554 55.9574 29.6835C56.8549 28.6116 57.4298 27.3069 57.6153 25.9213C57.8008 24.5356 57.5894 23.1257 57.0055 21.8554C56.7752 21.3545 56.4908 20.8834 56.1588 20.4498C55.1946 19.1904 54.3836 17.7353 53.6336 16.3377C53.338 15.787 52.9533 15.2825 52.49 14.8467C51.4066 13.8275 49.9749 13.2604 48.4874 13.2612C47.8928 13.264 47.3321 12.9048 47.1234 12.3479C46.7935 11.4673 46.3288 10.6409 45.7442 9.89898C44.941 8.87961 43.9299 8.04303 42.7782 7.44492C41.6265 6.84681 40.3606 6.50089 39.0648 6.4302C36.9114 6.31272 34.645 5.34157 33.0598 3.8794C32.5335 3.39397 31.9477 2.97022 31.3126 2.61975C29.5337 1.638 27.4742 1.2894 25.4713 1.63105C23.4684 1.97269 21.6409 2.98433 20.2881 4.50027C19.8041 5.04257 19.3912 5.63791 19.0552 6.2718C18.121 8.0345 16.1441 9.45417 14.187 9.84106C12.9145 10.0926 11.7174 10.6349 10.6891 11.4255C9.66073 12.2162 8.82905 13.2338 8.25896 14.3989C7.68886 15.5641 7.39577 16.8452 7.40257 18.1423C7.40437 19.2139 6.97984 20.2655 6.32439 21.1133C6.08686 21.4205 5.87822 21.7506 5.70189 22.0996C5.25927 22.9755 5.03316 23.9449 5.04252 24.9263C5.05188 25.9077 5.29644 26.8726 5.75568 27.7399C6.21493 28.6073 6.87548 29.3519 7.68192 29.9113C8.6743 30.6023 13.4378 25.6477 18.8775 27.3385C20.3704 27.8025 21.5206 28.3606 22.4038 28.9263C24.322 30.1549 27.0454 31.2271 29.3233 31.2345C29.3453 31.2339 29.3673 31.2334 29.3893 31.233C31.9925 31.184 34.8922 30.4021 37.0222 28.9048C38.3048 28.0031 39.7693 27.3932 41.3128 27.1179C46.4659 26.2946 51.8248 32.2122 52.5452 31.9769Z" fill="url(#paint2_linear_25_454)"/>
</g>
<path d="M35.4245 17.7674C35.4047 17.6876 35.3801 17.6091 35.351 17.5322L35.2481 17.2675C35.1092 16.9272 34.9445 16.5979 34.7556 16.2825C34.66 16.1281 34.5571 15.9885 34.4542 15.8414L34.2998 15.6356L34.1308 15.4371C34.0131 15.3048 33.9102 15.1725 33.7853 15.0549L33.4104 14.7094C32.9251 14.2941 32.3799 13.9546 31.7931 13.7023C31.5282 13.5837 31.2556 13.483 30.9772 13.4009C30.7052 13.3274 30.4332 13.2759 30.1833 13.2318C29.9333 13.1877 29.6834 13.173 29.4482 13.173C29.2129 13.173 28.9997 13.173 28.7939 13.173L28.2279 13.2539L27.7574 13.3788L27.5663 13.4303L27.3972 13.4965L27.1326 13.6067L26.9268 13.7023H27.1546C27.309 13.7023 27.5222 13.7023 27.7942 13.7464L28.2426 13.7979L28.7498 13.8934L29.3085 14.0478C29.4996 14.1066 29.6981 14.1875 29.9039 14.261C30.1097 14.3345 30.3082 14.4447 30.5141 14.555C30.7223 14.6651 30.9236 14.7878 31.1168 14.9226C31.5335 15.2029 31.9159 15.531 32.2562 15.9002C32.6092 16.2894 32.9151 16.7187 33.1678 17.1793L33.3442 17.5322C33.4104 17.6571 33.4324 17.7674 33.4839 17.8777L33.55 18.0541C33.5785 18.123 33.6007 18.1943 33.6162 18.2673L33.7338 18.6716C33.8518 19.195 33.9085 19.7303 33.9029 20.2667C33.8813 20.7908 33.8025 21.3109 33.6676 21.8178C33.5298 22.3 33.3349 22.7639 33.0869 23.1998C32.9767 23.4119 32.8514 23.6158 32.712 23.8099C32.5797 23.9937 32.4327 24.1701 32.3004 24.3392C32.168 24.5083 32.0137 24.6627 31.8666 24.8023C31.7196 24.942 31.58 25.067 31.4329 25.1846C31.2859 25.3022 31.1536 25.3978 31.0286 25.508C30.9037 25.6183 30.7713 25.6698 30.6611 25.7506C30.4332 25.905 30.2274 25.9932 30.095 26.0741L29.8966 26.1843H30.1245H30.4038H30.5802L30.7787 26.1476L31.2565 26.0447L31.8005 25.8609C31.9916 25.7874 32.1827 25.6845 32.3959 25.5815C32.6091 25.4786 32.8002 25.339 33.0281 25.1993C33.247 25.0437 33.4557 24.8743 33.6529 24.6921C33.8667 24.494 34.068 24.2828 34.2557 24.0599C34.6582 23.5642 34.9897 23.015 35.2408 22.4279L35.4172 21.9575C35.476 21.7958 35.5127 21.6267 35.5569 21.4576L35.623 21.2077L35.6671 20.9431C35.6671 20.774 35.7186 20.5976 35.7333 20.4211C35.7845 19.7044 35.7325 18.984 35.5789 18.282L35.4245 17.7674Z" fill="#475569"/>
<path d="M55.9558 31.3447H55.3972C56.4935 30.6242 57.3934 29.6422 58.0157 28.4873C58.6381 27.3324 58.9634 26.0408 58.9624 24.7288C58.9624 24.5671 58.9624 24.4054 58.9624 24.2437C58.9624 24.2069 58.9624 24.1702 58.9624 24.1334C58.9624 24.0966 58.9624 23.8541 58.9624 23.7217C58.9588 23.6998 58.9588 23.6775 58.9624 23.6556C58.7537 22.1202 58.0965 20.6805 57.0732 19.517C56.8603 19.2722 56.632 19.0414 56.3896 18.826L56.2793 18.7304L56.0367 18.5319L55.8897 18.4143L55.625 18.2232L55.3972 18.0688L55.1619 17.9291C55.1379 17.9078 55.1106 17.8904 55.0811 17.8777C55.0811 17.8336 55.0811 17.7968 55.0811 17.7527C55.0791 16.2775 54.4922 14.8632 53.4491 13.82C52.4059 12.7768 50.9916 12.1899 49.5163 12.188C49.121 12.1884 48.7268 12.2303 48.3402 12.313C47.9784 10.9852 47.3367 9.7502 46.458 8.69098C45.5794 7.63176 44.4843 6.77284 43.2463 6.17192C42.0082 5.57099 40.6559 5.24199 39.2801 5.20699C37.9044 5.172 36.5371 5.43183 35.2701 5.96904C34.1871 4.04279 32.5816 2.46203 30.6387 1.4092C28.6959 0.356368 26.4949 -0.125623 24.2899 0.0188703C22.0848 0.163363 19.9655 0.92845 18.1767 2.22581C16.3878 3.52318 15.0023 5.29993 14.18 7.35102C12.8549 7.1241 11.4962 7.18931 10.1989 7.54207C8.90165 7.89483 7.69704 8.52663 6.66932 9.39334C5.6416 10.26 4.81555 11.3407 4.2489 12.5599C3.68225 13.779 3.38868 15.1072 3.3887 16.4516C3.35896 17.0384 3.38604 17.6268 3.46956 18.2085C2.39099 18.937 1.50886 19.9204 0.901395 21.0715C0.293932 22.2226 -0.0200871 23.5058 -0.012816 24.8073C-0.0055449 26.1088 0.322797 27.3885 0.943082 28.5327C1.56337 29.6769 2.45643 30.6504 3.54307 31.3668H2.9991C2.60918 31.3668 2.23522 31.5217 1.95951 31.7974C1.68379 32.0731 1.52889 32.4471 1.52889 32.837C1.52793 33.0375 1.56657 33.2361 1.6426 33.4216C1.71864 33.607 1.83058 33.7757 1.97197 33.9177C2.11337 34.0598 2.28144 34.1726 2.46654 34.2495C2.65163 34.3264 2.85011 34.366 3.05056 34.366H4.72659C4.54015 35.191 4.44646 36.0343 4.44725 36.8801C4.44744 38.5926 4.82325 40.2843 5.54819 41.8358C6.27313 43.3874 7.32955 44.761 8.643 45.8599C9.95644 46.9589 11.4949 47.7564 13.15 48.1962C14.8052 48.636 16.5366 48.7074 18.2223 48.4054C19.908 48.1035 21.507 47.4354 22.9065 46.4484C24.306 45.4614 25.472 44.1795 26.3223 42.6929C27.1725 41.2064 27.6864 39.5514 27.8277 37.8447C27.969 36.138 27.7342 34.4211 27.1398 32.815C28.639 32.3369 30.2498 32.3369 31.7489 32.815C31.2678 34.1165 31.019 35.4924 31.0138 36.8801C31.0409 38.5096 31.4079 40.1156 32.0913 41.5952C32.7746 43.0748 33.7593 44.3954 34.9823 45.4727C36.2053 46.5499 37.6397 47.36 39.1937 47.8511C40.7477 48.3422 42.3871 48.5036 44.0071 48.3248C45.627 48.146 47.1918 47.631 48.6013 46.8128C50.0108 45.9946 51.234 44.8912 52.1926 43.5732C53.1512 42.2551 53.8242 40.7515 54.1684 39.1585C54.5126 37.5655 54.5205 35.9182 54.1916 34.3219H55.8603C56.2658 34.3219 56.6547 34.1608 56.9415 33.8741C57.2282 33.5873 57.3893 33.1984 57.3893 32.7929C57.3837 32.4131 57.2313 32.0502 56.9641 31.7802C56.6969 31.5103 56.3356 31.3542 55.9558 31.3447ZM16.1942 45.0323C14.5731 45.0323 12.9884 44.5517 11.6405 43.651C10.2926 42.7504 9.24207 41.4703 8.6217 39.9726C8.00134 38.4749 7.83902 36.8269 8.15528 35.2369C8.47154 33.647 9.25217 32.1865 10.3985 31.0402C11.5447 29.894 13.0052 29.1133 14.5951 28.7971C16.1851 28.4808 17.8331 28.6431 19.3308 29.2635C20.8285 29.8839 22.1086 30.9344 23.0092 32.2823C23.9099 33.6302 24.3906 35.2149 24.3906 36.836C24.3906 39.0098 23.527 41.0946 21.9899 42.6317C20.4528 44.1688 18.368 45.0323 16.1942 45.0323ZM33.1897 30.1098C30.7996 29.2079 28.1627 29.2079 25.7726 30.1098C24.6688 28.5326 23.1925 27.2524 21.475 26.383C19.7574 25.5137 17.8517 25.082 15.9271 25.1263C14.0025 25.1707 12.1187 25.6898 10.443 26.6374C8.76736 27.585 7.35167 28.9318 6.32176 30.5582C5.24894 30.2675 4.2774 29.6858 3.51449 28.8775C2.75159 28.0691 2.22704 27.0656 1.99883 25.9778C1.77061 24.89 1.84762 23.7602 2.22133 22.7134C2.59505 21.6667 3.25092 20.7436 4.11645 20.0462C4.11645 20.0903 4.16056 20.1344 4.18997 20.1785C4.35145 20.458 4.53586 20.7236 4.74129 20.9725C4.92473 21.1946 5.12371 21.4034 5.33672 21.5973C5.51606 21.759 5.70777 21.9065 5.9101 22.0384C6.08653 22.156 6.26295 22.2442 6.39527 22.3177L6.72607 22.4574L6.84368 22.5015C6.84368 22.5015 6.78487 22.3251 6.66726 22.0531L6.46878 21.5679C6.38792 21.3841 6.30706 21.1783 6.2262 20.9578C6.14533 20.7372 6.04977 20.5094 5.96891 20.2594C5.88805 20.0095 5.79983 19.7596 5.71897 19.5243L5.60871 19.1421L5.41758 18.407C5.37348 18.2599 5.34407 18.1056 5.30732 17.9585C5.30732 17.9585 5.30732 17.9218 5.30732 17.8997C5.21284 17.4328 5.16604 16.9574 5.16765 16.481C5.16765 14.5314 5.94213 12.6616 7.32071 11.283C8.69929 9.90444 10.5691 9.12997 12.5187 9.12997C12.858 9.1325 13.1969 9.15706 13.5331 9.20348L13.4817 9.38726V9.60778L13.4155 10.0488L13.3493 10.4899C13.3493 10.6443 13.3493 10.7619 13.3126 10.9016L13.2685 11.6881V11.7543V12.1586V12.5923C13.2785 12.8786 13.3105 13.1636 13.364 13.445C13.3995 13.7276 13.4535 14.0076 13.5258 14.283L13.7463 15.1064C13.8272 15.3783 13.9448 15.6356 14.0403 15.9003L14.1947 16.2825L14.3858 16.6574C14.5181 16.9 14.6284 17.1499 14.7681 17.3925C14.9078 17.6351 15.0695 17.8409 15.2091 18.0688C15.8006 18.8985 16.5059 19.6409 17.3042 20.2741C17.6679 20.5712 18.051 20.8438 18.4509 21.0901C18.6389 21.2054 18.8328 21.3109 19.0317 21.4062C19.2301 21.5091 19.4139 21.612 19.605 21.7002L20.1711 21.9207C20.3499 21.9998 20.5342 22.0662 20.7224 22.1192C21.09 22.2148 21.4575 22.325 21.7589 22.3839L22.6778 22.5309C22.9718 22.5309 23.2365 22.5309 23.4717 22.5676H23.8098H24.0965L24.5596 22.5309L24.9419 22.4941L24.5596 22.4206L24.1112 22.3398L23.8245 22.2883L23.5084 22.2001C23.2879 22.1413 23.0453 22.0825 22.7733 22.0016L21.95 21.6929C21.656 21.5826 21.3619 21.4282 21.0459 21.2812C20.7298 21.1342 20.4284 20.9284 20.1049 20.7446C19.9432 20.6417 19.7888 20.5241 19.6345 20.4138C19.4801 20.3035 19.3037 20.1932 19.1493 20.0609C18.8287 19.7977 18.522 19.518 18.2304 19.2229C17.6028 18.5967 17.0547 17.8955 16.5985 17.1352C16.1222 16.3301 15.7493 15.4681 15.4885 14.5697C15.437 14.3418 15.3782 14.1066 15.3194 13.8714V13.7023V13.5185L15.268 13.1657C15.2221 12.9231 15.1951 12.6773 15.1871 12.4306V12.0704V11.7175V10.9824C15.1871 10.8501 15.1871 10.7031 15.1871 10.5928L15.2385 10.2547L15.29 9.91653V9.74745L15.3341 9.57103L15.4223 9.19614L15.562 8.74772C16.1647 6.85856 17.3245 5.19571 18.889 3.97731C20.4535 2.75891 22.3498 2.04187 24.329 1.92026C26.3083 1.79864 28.2781 2.27813 29.98 3.29581C31.6819 4.3135 33.0365 5.82186 33.866 7.62302L34.285 8.5419L35.1745 8.05673C36.264 7.45924 37.481 7.13227 38.7233 7.10336C39.9655 7.07444 41.1964 7.34443 42.3125 7.89058C43.4286 8.43674 44.3971 9.24306 45.1365 10.2417C45.8759 11.2403 46.3645 12.4019 46.5612 13.6288V13.7244C46.5957 13.9112 46.6154 14.1005 46.62 14.2904V14.8417V15.4445C46.62 15.5474 46.62 15.6724 46.62 15.7532L46.5759 16.0179V16.2825C46.5695 16.3725 46.5522 16.4613 46.5245 16.5471C46.4804 16.7309 46.4436 16.9147 46.3995 17.0985C46.1953 17.8104 45.904 18.4943 45.5321 19.1347C45.1802 19.7423 44.7529 20.303 44.2604 20.8034C44.0302 21.0445 43.7847 21.2704 43.5253 21.4797C43.2753 21.6855 43.0181 21.8619 42.7902 22.0457C42.5623 22.2295 42.2903 22.3618 42.0551 22.4868C41.8198 22.6117 41.5773 22.7441 41.32 22.8396L40.6657 23.1043L40.085 23.2807C39.9293 23.335 39.7695 23.3768 39.6072 23.4057L39.247 23.4865L38.9382 23.5527L39.247 23.5894L39.6219 23.6335C39.7027 23.6378 39.7837 23.6378 39.8645 23.6335H40.1365H40.776L41.5111 23.5306C41.7831 23.4865 42.0551 23.4057 42.3565 23.3321C42.6578 23.2586 42.9519 23.119 43.2753 23.0013C43.437 22.9352 43.5914 22.8543 43.7458 22.7735C43.9127 22.6979 44.0747 22.6119 44.231 22.5162C44.5616 22.32 44.8785 22.1014 45.1793 21.8619C45.8422 21.3437 46.4265 20.7321 46.9141 20.0462C47.0317 19.8625 47.1567 19.6787 47.2743 19.4876C47.3919 19.2964 47.4875 19.098 47.5977 18.8995L47.7521 18.5907L47.8844 18.2746C47.9653 18.0541 48.0608 17.8483 48.127 17.6204L48.3108 16.9441C48.3745 16.7027 48.4212 16.457 48.4505 16.209L48.5019 15.8415C48.5019 15.7091 48.5019 15.6209 48.5019 15.5106L48.5387 14.8711V14.533V14.2316C48.8244 14.1579 49.1183 14.1208 49.4134 14.1213C50.267 14.1232 51.0933 14.422 51.7505 14.9666C52.4077 15.5112 52.855 16.2675 53.0154 17.1058C52.3582 16.9316 51.6812 16.8426 51.0013 16.8412C50.7498 16.8412 50.5086 16.9411 50.3307 17.1189C50.1529 17.2968 50.053 17.538 50.053 17.7895C50.054 17.8998 50.0739 18.0092 50.1118 18.1129C50.0122 18.2063 49.9257 18.3126 49.8545 18.429C49.783 18.5294 49.7191 18.6351 49.6634 18.7451H50.0236C50.1558 18.738 50.2883 18.738 50.4205 18.7451H50.8616C51.0233 18.7451 51.1924 18.7451 51.3615 18.7966C51.5305 18.848 51.707 18.8333 51.876 18.8701C52.0451 18.9068 52.0525 18.8701 52.1407 18.9215L52.4053 18.973L52.6773 19.0392L52.9419 19.1053C53.1257 19.1421 53.3095 19.2009 53.4859 19.2523L53.6844 19.3111L53.9123 19.4288L54.0372 19.5023L54.2431 19.6272L54.3607 19.7007L54.64 19.8992L54.7356 19.9727L54.9561 20.1639L55.0223 20.2153L55.309 20.4873C56.2922 21.5003 56.8948 22.8223 57.0144 24.229V24.3098C57.0217 24.442 57.0217 24.5746 57.0144 24.7068C57.0137 26.0243 56.5823 27.3055 55.7861 28.3552C54.9899 29.4049 53.8723 30.1656 52.6038 30.5214C51.573 28.895 50.1566 27.5483 48.4803 26.6008C46.804 25.6533 44.9197 25.1343 42.9947 25.09C41.0697 25.0456 39.1635 25.4772 37.4453 26.3465C35.7272 27.2158 34.2502 28.4959 33.1456 30.073L33.1897 30.1098ZM42.7461 45.0323C41.125 45.0323 39.5403 44.5517 38.1924 43.651C36.8445 42.7504 35.794 41.4703 35.1736 39.9726C34.5532 38.4749 34.3909 36.8269 34.7072 35.2369C35.0234 33.647 35.8041 32.1865 36.9503 31.0402C38.0966 29.894 39.5571 29.1133 41.147 28.7971C42.737 28.4808 44.385 28.6431 45.8827 29.2635C47.3804 29.8839 48.6605 30.9344 49.5611 32.2823C50.4617 33.6302 50.9424 35.2149 50.9424 36.836C50.9425 39.006 50.0819 41.0874 48.5496 42.6239C47.0172 44.1604 44.9381 45.0265 42.7681 45.0323H42.7461Z" fill="#475569"/>
<path d="M18.1056 39.6146C17.9154 39.6159 17.7267 39.6482 17.5469 39.7102C17.6722 39.7755 17.7773 39.8736 17.8511 39.994C17.9249 40.1144 17.9646 40.2526 17.9659 40.3938C17.9676 40.5689 17.9103 40.7394 17.8032 40.8779C17.6962 41.0164 17.5456 41.1148 17.3757 41.1573C17.2059 41.1997 17.0267 41.1838 16.8671 41.112C16.7074 41.0401 16.5766 40.9166 16.4957 40.7614C16.4343 40.9388 16.402 41.125 16.4002 41.3127C16.3987 41.6503 16.4975 41.9808 16.684 42.2622C16.8705 42.5436 17.1364 42.7634 17.4478 42.8936C17.7593 43.0238 18.1025 43.0586 18.4338 42.9936C18.7651 42.9287 19.0697 42.7668 19.3089 42.5286C19.5481 42.2904 19.7113 41.9865 19.7777 41.6555C19.8441 41.3245 19.8108 40.9812 19.6819 40.6692C19.5531 40.3571 19.3345 40.0903 19.0539 39.9026C18.7732 39.7149 18.4432 39.6146 18.1056 39.6146Z" fill="#475569"/>
<path d="M40.8644 39.6146C40.6742 39.6159 40.4855 39.6482 40.3057 39.7102C40.4142 39.7668 40.5078 39.8481 40.579 39.9476C40.6502 40.0471 40.697 40.1619 40.7156 40.2828C40.7342 40.4038 40.724 40.5274 40.6859 40.6437C40.6478 40.7599 40.5829 40.8656 40.4964 40.9521C40.4099 41.0386 40.3042 41.1035 40.188 41.1416C40.0717 41.1797 39.9481 41.1899 39.8272 41.1713C39.7062 41.1527 39.5914 41.1059 39.4919 41.0347C39.3924 40.9635 39.3111 40.8699 39.2545 40.7614C39.193 40.9388 39.1608 41.125 39.159 41.3127C39.1575 41.6503 39.2563 41.9808 39.4428 42.2622C39.6293 42.5436 39.8951 42.7634 40.2066 42.8936C40.5181 43.0238 40.8613 43.0586 41.1926 42.9936C41.5239 42.9287 41.8284 42.7668 42.0677 42.5286C42.3069 42.2904 42.4701 41.9865 42.5365 41.6555C42.6029 41.3245 42.5696 40.9812 42.4407 40.6692C42.3118 40.3571 42.0932 40.0903 41.8126 39.9026C41.532 39.7149 41.202 39.6146 40.8644 39.6146Z" fill="#475569"/>
<path d="M15.7532 30.345L15.518 30.2862L15.2313 30.2494C15.0015 30.2267 14.7701 30.2267 14.5403 30.2494H14.136L13.717 30.3303C13.4106 30.3975 13.1105 30.4909 12.8201 30.6096C12.1929 30.8916 11.6205 31.2823 11.1294 31.7637C10.8848 32.0153 10.6634 32.2884 10.4678 32.5797C10.2769 32.858 10.112 33.1533 9.9753 33.4618C9.85767 33.7501 9.76423 34.0476 9.69597 34.3513C9.69597 34.4983 9.63716 34.638 9.6151 34.7703C9.59305 34.9026 9.6151 35.0496 9.6151 35.1746C9.59054 35.419 9.59054 35.6653 9.6151 35.9097C9.61915 36.0061 9.63145 36.1021 9.65186 36.1964L9.71066 36.4243C9.71066 36.564 9.78418 36.6742 9.80623 36.7477L9.85034 36.858L9.90179 36.7477C9.90179 36.6816 9.98265 36.5713 10.0341 36.439L10.115 36.2185C10.1591 36.145 10.1885 36.0641 10.2326 35.9759C10.2767 35.8877 10.387 35.6304 10.4972 35.4319L10.6516 35.1232C10.7178 35.0276 10.7766 34.9173 10.8354 34.8144C10.9456 34.5939 11.1147 34.3954 11.247 34.1749C11.3793 33.9543 11.5558 33.7412 11.7395 33.5427C11.9233 33.3442 12.0997 33.1384 12.2835 32.9399C12.4673 32.7414 12.6731 32.565 12.8863 32.3959C13.0995 32.2269 13.3127 32.0725 13.5185 31.9034C13.7243 31.7343 13.9375 31.6094 14.158 31.4991L14.4668 31.3153L14.7755 31.161C14.954 31.0599 15.1381 30.9691 15.3268 30.889C15.4104 30.8557 15.4915 30.8164 15.5694 30.7714L15.7826 30.6905L16.0914 30.5582L16.2016 30.5067L16.0914 30.4626L15.7532 30.345Z" fill="#475569"/>
<path d="M42.1213 30.345L41.8861 30.2862L41.5994 30.2494C41.3696 30.2267 41.1382 30.2267 40.9084 30.2494H40.5041L40.0851 30.3303C39.779 30.3985 39.479 30.492 39.1883 30.6096C38.8829 30.748 38.5902 30.9128 38.3135 31.1022C37.7269 31.4851 37.2263 31.9858 36.8433 32.5724C36.652 32.8491 36.4894 33.1447 36.3581 33.4545C36.2382 33.7426 36.1423 34.0401 36.0715 34.344C36.0715 34.491 36.0126 34.6306 35.9906 34.763C35.9685 34.8953 35.9906 35.0423 35.9906 35.1673C35.966 35.4117 35.966 35.658 35.9906 35.9024C35.9906 36.0053 35.9906 36.1008 35.9906 36.1891L36.0494 36.4169C36.0862 36.5566 36.1229 36.6669 36.145 36.7404L36.1891 36.8506L36.2405 36.7404C36.2405 36.6742 36.3214 36.564 36.3728 36.4316L36.4537 36.2111C36.4987 36.1332 36.538 36.0521 36.5713 35.9685C36.6522 35.7995 36.7257 35.623 36.836 35.4246L36.9903 35.1158C37.0565 35.0202 37.1153 34.91 37.1815 34.8071C37.2917 34.5865 37.4534 34.3881 37.5858 34.1675C37.7181 33.947 37.8945 33.7338 38.0783 33.5353C38.2621 33.3369 38.4385 33.131 38.6223 32.9326C38.806 32.7341 39.0119 32.5577 39.225 32.3886C39.4382 32.2195 39.6514 32.0651 39.8572 31.8961C40.0631 31.727 40.2762 31.602 40.4968 31.4918L40.8055 31.308L41.1143 31.1536C41.2945 31.0511 41.4811 30.9602 41.6729 30.8816L41.9082 30.764L42.1213 30.6831L42.4301 30.5508L42.5403 30.4994L42.4301 30.4553L42.1213 30.345Z" fill="#475569"/>
<path d="M34.2043 46.9583L34.0279 47.3847C33.7724 47.9295 33.4541 48.4427 33.0796 48.9137C32.7166 49.3604 32.3021 49.7626 31.8446 50.1119C31.6314 50.2957 31.3888 50.4206 31.1757 50.5824C30.9625 50.7441 30.7125 50.8323 30.492 50.9573C30.2715 51.0822 30.0436 51.1631 29.8304 51.244C29.6172 51.3248 29.4041 51.3983 29.1982 51.4498L28.6175 51.6041L28.125 51.6924C27.8818 51.7353 27.6364 51.7648 27.3899 51.7806H27.1252L27.3752 51.8761L27.6766 51.9791L27.8677 52.0452L28.0956 52.0893L28.6469 52.1996L29.3011 52.251C29.5364 52.251 29.7863 52.251 30.0362 52.251C30.2862 52.251 30.5802 52.1702 30.8743 52.1334C31.1683 52.0967 31.4623 51.979 31.7637 51.8761C32.0814 51.7657 32.3909 51.6331 32.69 51.4792C33.3419 51.1445 33.9413 50.716 34.4689 50.2075L34.8732 49.7884C35.0055 49.6488 35.1158 49.4871 35.2408 49.3327L35.4245 49.0901L35.5863 48.8402C35.6892 48.6638 35.8068 48.4947 35.895 48.3182L36.0126 48.083L34.2043 46.9142V46.9583Z" fill="#475569"/>
<path d="M82.7063 28.6616C82.7272 28.3785 82.6911 28.0941 82.6002 27.8252C82.5093 27.5562 82.3654 27.3082 82.177 27.0959C81.6107 26.6153 80.9602 26.2439 80.2584 26.0006C78.8668 25.5572 77.6049 24.7799 76.5829 23.7364C75.8417 22.8923 75.4432 21.8015 75.4656 20.6784C75.4427 20.028 75.567 19.3808 75.8292 18.7851C76.0914 18.1894 76.4847 17.6606 76.9799 17.2381C77.9141 16.527 79.0282 16.0904 80.1969 15.9774C81.3656 15.8645 82.5426 16.0796 83.5958 16.5986C84.3901 17.0197 85.0441 17.6635 85.4776 18.451C85.9225 19.2903 86.1476 20.2286 86.1319 21.1783H82.7284C82.7731 20.535 82.5939 19.8961 82.2211 19.3699C82.0425 19.1575 81.8163 18.9902 81.5608 18.8816C81.3053 18.773 81.0279 18.7263 80.7509 18.7451C80.4951 18.7298 80.2389 18.7691 79.9994 18.8603C79.7598 18.9516 79.5424 19.0927 79.3616 19.2744C79.0127 19.6648 78.833 20.1777 78.8617 20.7005C78.8642 20.937 78.9151 21.1706 79.0112 21.3867C79.1072 21.6029 79.2465 21.7971 79.4204 21.9575C80.0017 22.4621 80.669 22.858 81.3905 23.1263C82.7581 23.5454 83.9973 24.3041 84.9925 25.3316C85.7618 26.2607 86.1598 27.4417 86.1098 28.6469C86.1453 29.2897 86.0378 29.9323 85.7951 30.5284C85.5523 31.1246 85.1802 31.6595 84.7058 32.0946C83.6323 32.9737 82.2688 33.4195 80.8833 33.3442C79.8468 33.3563 78.8219 33.1246 77.8914 32.6679C77.0169 32.2397 76.2844 31.5685 75.7816 30.7346C75.2711 29.8407 75.0167 28.8233 75.0465 27.7942H78.4721C78.4065 28.5478 78.6096 29.3004 79.0455 29.9186C79.2863 30.1613 79.5782 30.3473 79.8999 30.463C80.2216 30.5787 80.5651 30.6213 80.9053 30.5876C82.106 30.568 82.7063 29.926 82.7063 28.6616Z" fill="#475569"/>
<path d="M91.3437 20.5241L91.4393 21.6855C91.7821 21.2347 92.228 20.8725 92.7396 20.6295C93.2512 20.3865 93.8136 20.2697 94.3797 20.2888C94.9448 20.2599 95.5048 20.4079 95.9818 20.7123C96.4588 21.0167 96.829 21.4623 97.0408 21.9869C97.3545 21.4535 97.8061 21.0144 98.348 20.7156C98.8899 20.4168 99.5023 20.2694 100.121 20.2888C102.326 20.2888 103.451 21.8178 103.502 24.8612V33.1017H100.216V25.067C100.258 24.529 100.152 23.9899 99.9077 23.5086C99.7933 23.3481 99.6386 23.2208 99.4591 23.1395C99.2797 23.0582 99.0819 23.0257 98.8859 23.0454C98.2758 23.0454 97.82 23.4204 97.5186 24.1775V24.5671V33.1017H94.2253V25.089C94.2637 24.5536 94.165 24.0173 93.9387 23.5306C93.8257 23.3638 93.6697 23.2307 93.4872 23.1453C93.3048 23.0599 93.1026 23.0254 92.9022 23.0454C92.6123 23.0489 92.33 23.138 92.0906 23.3015C91.8513 23.465 91.6656 23.6956 91.5569 23.9643V33.1017H88.2637V20.5241H91.3437Z" fill="#475569"/>
<path d="M111.883 33.1017C111.757 32.7859 111.663 32.4584 111.603 32.124C111.338 32.5097 110.98 32.8228 110.563 33.0346C110.146 33.2465 109.682 33.3504 109.214 33.3369C108.728 33.3511 108.244 33.2652 107.793 33.0844C107.341 32.9035 106.932 32.6316 106.59 32.2857C106.241 31.9291 105.969 31.5054 105.79 31.0404C105.61 30.5753 105.527 30.0786 105.546 29.5805C105.514 29.0086 105.611 28.4369 105.83 27.9076C106.049 27.3783 106.384 26.9049 106.81 26.5225C107.852 25.7362 109.139 25.3454 110.442 25.4198H111.441V24.4054C111.48 23.9853 111.379 23.5642 111.155 23.2072C111.047 23.0895 110.915 22.9975 110.768 22.9377C110.62 22.8779 110.461 22.8519 110.302 22.8617C109.479 22.8617 109.074 23.3395 109.074 24.3319H105.781C105.768 23.785 105.878 23.2422 106.105 22.7444C106.332 22.2465 106.668 21.8066 107.09 21.4576C108.013 20.6815 109.192 20.2755 110.398 20.3182C111.565 20.2402 112.715 20.6289 113.595 21.3988C113.99 21.8026 114.295 22.2847 114.492 22.8141C114.688 23.3434 114.771 23.9081 114.735 24.4715V30.3524C114.708 31.2288 114.869 32.1008 115.205 32.9105V33.109L111.883 33.1017ZM109.942 30.7493C110.267 30.7594 110.589 30.6833 110.875 30.5288C111.105 30.4046 111.299 30.2252 111.441 30.0069V27.3973H110.655C110.409 27.3848 110.164 27.4257 109.935 27.517C109.707 27.6084 109.501 27.7481 109.332 27.9265C108.996 28.3265 108.826 28.8389 108.854 29.36C108.854 30.2862 109.214 30.7493 109.942 30.7493Z" fill="#475569"/>
<path d="M123.291 23.6997L122.203 23.6041C121.811 23.5742 121.419 23.6738 121.089 23.8875C120.758 24.1013 120.507 24.4174 120.373 24.7876V33.1016H117.072V20.524H120.174L120.27 21.884C120.429 21.4338 120.719 21.0413 121.103 20.7571C121.487 20.4729 121.947 20.3098 122.424 20.2888C122.733 20.2782 123.04 20.3308 123.328 20.4432L123.291 23.6997Z" fill="#475569"/>
<path d="M129.415 17.4293V20.524H131.098V22.9866H129.415V29.235C129.383 29.5875 129.452 29.9418 129.613 30.2568C129.714 30.3612 129.837 30.4408 129.974 30.4893C130.11 30.5377 130.256 30.5538 130.4 30.5361C130.662 30.5411 130.924 30.514 131.179 30.4553V33.0134C130.597 33.226 129.982 33.333 129.363 33.3295C127.241 33.3295 126.168 32.1044 126.144 29.654V22.9646H124.673V20.502H126.144V17.4072L129.415 17.4293Z" fill="#475569"/>
<path d="M141.97 27.1473V33.1017H138.552V16.1943H144.315C145.054 16.1589 145.793 16.2786 146.483 16.5457C147.173 16.8129 147.799 17.2215 148.321 17.7454C149.329 18.8472 149.858 20.3041 149.792 21.7958C149.831 22.5161 149.72 23.2368 149.467 23.9123C149.214 24.5879 148.824 25.2038 148.321 25.7212C147.772 26.227 147.126 26.6176 146.423 26.8701C145.72 27.1226 144.973 27.2318 144.227 27.1914L141.97 27.1473ZM141.97 24.3025H144.315C144.6 24.3179 144.884 24.2684 145.146 24.1576C145.409 24.0467 145.642 23.8776 145.83 23.663C146.218 23.1238 146.405 22.4659 146.359 21.8031C146.395 21.0911 146.204 20.386 145.815 19.7889C145.648 19.5558 145.427 19.367 145.171 19.2389C144.915 19.1107 144.631 19.0472 144.345 19.0538H141.963L141.97 24.3025Z" fill="#475569"/>
<path d="M158.135 23.6997L157.04 23.6041C156.648 23.5747 156.258 23.6745 155.929 23.8883C155.599 24.1021 155.349 24.4181 155.217 24.7877V33.1017H151.916V20.5241H155.018L155.114 21.884C155.271 21.4338 155.56 21.0411 155.942 20.7567C156.325 20.4723 156.784 20.3093 157.26 20.2888C157.572 20.2777 157.882 20.3302 158.172 20.4432L158.135 23.6997Z" fill="#475569"/>
<path d="M164.898 33.3369C164.17 33.3784 163.442 33.2649 162.762 33.0039C162.081 32.7428 161.464 32.3401 160.951 31.8225C159.935 30.6204 159.426 29.0705 159.532 27.5002V26.5004C159.428 24.8653 159.887 23.2437 160.833 21.906C161.285 21.3644 161.857 20.936 162.505 20.6552C163.152 20.3744 163.856 20.2489 164.56 20.2888C165.233 20.243 165.906 20.3562 166.527 20.6193C167.148 20.8824 167.698 21.2879 168.133 21.8031C169.02 23.1261 169.449 24.7042 169.353 26.2946V27.9045H162.81C162.791 28.6355 163.005 29.3538 163.421 29.9554C163.636 30.1832 163.899 30.3596 164.192 30.4716C164.485 30.5836 164.799 30.6283 165.111 30.6023C165.623 30.6143 166.132 30.5207 166.607 30.3272C167.081 30.1336 167.51 29.8444 167.868 29.4776L169.154 31.4624C168.7 32.0615 168.093 32.5284 167.397 32.8149C166.612 33.1665 165.759 33.3445 164.898 33.3369ZM162.832 25.6183H166.118V25.3096C166.139 24.7194 166.013 24.1334 165.751 23.6041C165.621 23.406 165.439 23.2472 165.225 23.1449C165.011 23.0426 164.774 23.0005 164.538 23.0234C164.293 23.0056 164.049 23.0534 163.829 23.162C163.609 23.2706 163.423 23.4359 163.288 23.6409C162.979 24.2534 162.822 24.932 162.832 25.6183Z" fill="#475569"/>
<path d="M170.771 26.4269C170.771 24.3686 171.119 22.8323 171.815 21.8178C172.147 21.3218 172.602 20.9202 173.136 20.6523C173.669 20.3843 174.263 20.2591 174.859 20.2888C175.333 20.2876 175.801 20.4013 176.222 20.6202C176.643 20.8391 177.005 21.1567 177.277 21.5458V15.2681H180.629V33.1237H177.645L177.49 31.8446C177.226 32.3015 176.846 32.6815 176.39 32.9471C175.934 33.2127 175.416 33.3546 174.888 33.3589C174.298 33.3872 173.71 33.2627 173.182 32.9974C172.654 32.7322 172.204 32.3351 171.874 31.8446C171.095 30.5104 170.724 28.9768 170.808 27.434L170.771 26.4269ZM174.072 27.2502C174.01 28.1363 174.145 29.0252 174.469 29.8525C174.595 30.0929 174.789 30.2908 175.027 30.4215C175.265 30.5523 175.536 30.61 175.807 30.5876C176.109 30.5971 176.408 30.5207 176.668 30.3671C176.928 30.2135 177.139 29.9892 177.277 29.7202V23.979C177.153 23.6947 176.947 23.454 176.685 23.2877C176.423 23.1214 176.117 23.037 175.807 23.0454C175.539 23.0297 175.273 23.0904 175.038 23.2206C174.804 23.3508 174.612 23.545 174.484 23.7805C174.142 24.603 173.998 25.4945 174.065 26.3828L174.072 27.2502Z" fill="#475569"/>
<path d="M183.011 17.2675C183.003 17.0362 183.043 16.8057 183.126 16.5898C183.209 16.3738 183.335 16.1769 183.496 16.0105C183.857 15.6971 184.319 15.5246 184.797 15.5246C185.275 15.5246 185.737 15.6971 186.098 16.0105C186.262 16.1752 186.39 16.3718 186.475 16.588C186.56 16.8042 186.599 17.0355 186.591 17.2675C186.598 17.4989 186.559 17.7294 186.476 17.9453C186.393 18.1612 186.267 18.3582 186.106 18.5246C185.859 18.7902 185.537 18.9745 185.184 19.053C184.83 19.1315 184.46 19.1004 184.125 18.964C183.789 18.8276 183.502 18.5923 183.303 18.2893C183.105 17.9863 183.002 17.6299 183.011 17.2675ZM186.459 33.1016H183.158V20.524H186.459V33.1016Z" fill="#475569"/>
<path d="M193.552 30.6023C194.508 30.6023 195.022 29.9848 195.022 28.7425H198.11C198.13 29.3525 198.029 29.9604 197.812 30.5309C197.594 31.1013 197.266 31.6229 196.846 32.0652C196.428 32.4868 195.928 32.8174 195.376 33.0363C194.824 33.2552 194.234 33.3575 193.64 33.3369C192.948 33.3814 192.253 33.2683 191.61 33.006C190.967 32.7437 190.392 32.3391 189.928 31.8226C189.075 30.813 188.642 29.3281 188.627 27.3678V26.3681C188.518 24.7608 188.965 23.165 189.891 21.8472C190.348 21.3164 190.922 20.8992 191.567 20.6287C192.213 20.3582 192.913 20.2418 193.611 20.2888C194.218 20.2578 194.824 20.3565 195.389 20.5784C195.954 20.8002 196.466 21.14 196.89 21.5752C197.753 22.5986 198.19 23.9144 198.11 25.2508H195.022C195.048 24.6854 194.926 24.1232 194.67 23.6188C194.555 23.4312 194.39 23.279 194.195 23.1791C193.999 23.0791 193.779 23.0355 193.56 23.0528C193.318 23.033 193.075 23.0793 192.858 23.1867C192.64 23.2942 192.456 23.4588 192.325 23.6629C192.008 24.4096 191.872 25.2207 191.928 26.03V27.3091C191.902 28.0256 191.954 28.7428 192.082 29.4482C192.143 29.7948 192.319 30.1108 192.582 30.345C192.865 30.542 193.209 30.633 193.552 30.6023Z" fill="#475569"/>
<path d="M203.785 17.4293V20.524H205.468V22.9866H203.785V29.235C203.753 29.5875 203.822 29.9418 203.983 30.2568C204.084 30.3612 204.207 30.4408 204.344 30.4893C204.48 30.5377 204.626 30.5538 204.77 30.5361C205.032 30.5407 205.294 30.5136 205.549 30.4553V33.0134C204.968 33.226 204.353 33.333 203.733 33.3295C201.611 33.3295 200.538 32.1044 200.514 29.654V22.9646H199.043V20.502H200.514V17.4072L203.785 17.4293Z" fill="#475569"/>
<path d="M206.534 26.4049C206.439 24.7971 206.918 23.2078 207.887 21.9207C208.365 21.4064 208.944 20.9962 209.588 20.7157C210.232 20.4352 210.926 20.2905 211.628 20.2905C212.331 20.2905 213.025 20.4352 213.669 20.7157C214.313 20.9962 214.892 21.4064 215.37 21.9207C216.335 23.2176 216.811 24.8133 216.715 26.4269V27.2282C216.813 28.8351 216.342 30.425 215.385 31.7196C214.904 32.2326 214.322 32.6414 213.677 32.9209C213.031 33.2004 212.335 33.3446 211.632 33.3446C210.929 33.3446 210.233 33.2004 209.587 32.9209C208.942 32.6414 208.361 32.2326 207.879 31.7196C206.913 30.4234 206.437 28.8272 206.534 27.2135V26.4049ZM209.835 27.2282C209.835 29.4776 210.435 30.6023 211.636 30.6023C212.743 30.6023 213.341 29.6638 213.429 27.7868V26.4049C213.486 25.5288 213.324 24.6524 212.959 23.854C212.837 23.6007 212.644 23.3877 212.404 23.2405C212.165 23.0933 211.888 23.0179 211.606 23.0234C211.333 23.0262 211.065 23.1055 210.834 23.2523C210.603 23.3991 210.417 23.6075 210.298 23.854C209.936 24.6535 209.775 25.529 209.827 26.4049L209.835 27.2282Z" fill="#475569"/>
<path d="M224.971 23.6997L223.875 23.6041C223.484 23.5759 223.094 23.6762 222.765 23.8899C222.436 24.1035 222.186 24.4187 222.052 24.7876V33.1016H218.752V20.524H221.854L221.949 21.884C222.109 21.4338 222.399 21.0413 222.782 20.7571C223.166 20.4729 223.626 20.3098 224.103 20.2888C224.412 20.2782 224.72 20.3308 225.007 20.4432L224.971 23.6997Z" fill="#475569"/>
</g>
<defs>
<filter id="filter0_ddd_25_454" x="0.0422363" y="0.503342" width="62.6384" height="40.4804" filterUnits="userSpaceOnUse" color-interpolation-filters="sRGB">
<feFlood flood-opacity="0" result="BackgroundImageFix"/>
<feColorMatrix in="SourceAlpha" type="matrix" values="0 0 0 0 0 0 0 0 0 0 0 0 0 0 0 0 0 0 127 0" result="hardAlpha"/>
<feMorphology radius="1" operator="erode" in="SourceAlpha" result="effect1_dropShadow_25_454"/>
<feOffset dy="2"/>
<feGaussianBlur stdDeviation="2"/>
<feColorMatrix type="matrix" values="0 0 0 0 0.0588235 0 0 0 0 0.0901961 0 0 0 0 0.164706 0 0 0 0.06 0"/>
<feBlend mode="normal" in2="BackgroundImageFix" result="effect1_dropShadow_25_454"/>
<feColorMatrix in="SourceAlpha" type="matrix" values="0 0 0 0 0 0 0 0 0 0 0 0 0 0 0 0 0 0 127 0" result="hardAlpha"/>
<feMorphology radius="1" operator="erode" in="SourceAlpha" result="effect2_dropShadow_25_454"/>
<feOffset dy="4"/>
<feGaussianBlur stdDeviation="3"/>
<feColorMatrix type="matrix" values="0 0 0 0 0.0588235 0 0 0 0 0.0901961 0 0 0 0 0.164706 0 0 0 0.1 0"/>
<feBlend mode="normal" in2="effect1_dropShadow_25_454" result="effect2_dropShadow_25_454"/>
<feColorMatrix in="SourceAlpha" type="matrix" values="0 0 0 0 0 0 0 0 0 0 0 0 0 0 0 0 0 0 127 0" result="hardAlpha"/>
<feOffset/>
<feGaussianBlur stdDeviation="0.5"/>
<feColorMatrix type="matrix" values="0 0 0 0 0.0588235 0 0 0 0 0.0901961 0 0 0 0 0.164706 0 0 0 0.06 0"/>
<feBlend mode="normal" in2="effect2_dropShadow_25_454" result="effect3_dropShadow_25_454"/>
<feBlend mode="normal" in="SourceGraphic" in2="effect3_dropShadow_25_454" result="shape"/>
</filter>
<linearGradient id="paint0_linear_25_454" x1="34.5718" y1="36.836" x2="50.9646" y2="36.836" gradientUnits="userSpaceOnUse">
<stop stop-color="white"/>
<stop offset="1" stop-color="#B0BEC5"/>
</linearGradient>
<linearGradient id="paint1_linear_25_454" x1="186.351" y1="850.081" x2="551.746" y2="850.081" gradientUnits="userSpaceOnUse">
<stop stop-color="white"/>
<stop offset="1" stop-color="#B0BEC5"/>
</linearGradient>
<linearGradient id="paint2_linear_25_454" x1="9.2751" y1="20.4585" x2="57.6807" y2="20.4585" gradientUnits="userSpaceOnUse">
<stop stop-color="#00B0FF"/>
<stop offset="1" stop-color="#2962FF"/>
</linearGradient>
<clipPath id="clip0_25_454">
<rect width="225" height="52.2805" fill="white"/>
</clipPath>
</defs>
</svg>
